<svg width="256" height="256" viewBox="0 0 256 256" fill="none" xmlns="http://www.w3.org/2000/svg">
<g clip-path="url(#clip0_5311_245)">
<path d="M115.928 193.704V55.072L89.64 56.064C81.704 56.3947 75.504 57.4693 71.04 59.288C66.7413 61.1067 63.4347 64.4133 61.12 69.208C58.9707 73.8373 57.152 80.616 55.664 89.544H47.976L50.208 43.912C55.0027 44.408 60.5413 44.8213 66.824 45.152C73.272 45.3173 79.6373 45.4 85.92 45.4H169.248C174.539 45.4 180.408 45.3173 186.856 45.152C193.469 44.8213 199.504 44.408 204.96 43.912L207.192 89.544H199.504C198.016 80.616 196.115 73.8373 193.8 69.208C191.651 64.4133 188.344 61.1067 183.88 59.288C179.581 57.4693 173.464 56.3947 165.528 56.064L139.24 55.072V193.704C139.24 197.507 139.736 200.648 140.728 203.128C141.72 205.443 143.539 207.179 146.184 208.336C148.995 209.493 152.797 210.32 157.592 210.816L165.28 211.56V219H89.888V211.56L97.576 210.816C102.536 210.32 106.339 209.493 108.984 208.336C111.629 207.179 113.448 205.443 114.44 203.128C115.432 200.648 115.928 197.507 115.928 193.704Z" fill="black"/>
</g>
<defs>
<clipPath id="clip0_5311_245">
<rect width="256" height="256" rx="128" fill="white"/>
</clipPath>
</defs>
</svg>
